<?xml version="1.0" standalone="no"?>
<!DOCTYPE svg PUBLIC "-//W3C//DTD SVG 20010904//EN"
 "http://www.w3.org/TR/2001/REC-SVG-20010904/DTD/svg10.dtd">
<svg version="1.0" xmlns="http://www.w3.org/2000/svg"
 width="604.000000pt" height="604.000000pt" viewBox="0 0 604.000000 604.000000"
 preserveAspectRatio="xMidYMid meet">
<metadata>
Created by potrace 1.11, written by Peter Selinger 2001-2013
</metadata>
<g transform="translate(0.000000,604.000000) scale(0.100000,-0.100000)"
fill="#000000" stroke="none">
<path d="M3625 5639 c-22 -4 -83 -23 -135 -42 -428 -156 -766 -390 -956 -662
-82 -118 -152 -281 -169 -396 -4 -24 -9 -47 -11 -51 -7 -11 -6 -217 1 -263 35
-228 125 -436 310 -715 69 -104 286 -403 305 -420 29 -26 300 -410 300 -425 0
-4 9 -19 19 -33 10 -15 19 -29 19 -32 1 -3 12 -30 25 -60 44 -99 61 -186 61
-310 0 -132 -15 -195 -72 -305 -42 -80 -155 -200 -247 -261 -167 -112 -400
-205 -652 -259 -13 -3 -33 -7 -45 -10 -47 -11 -245 -44 -298 -50 -30 -3 -73
-8 -95 -11 -122 -15 -201 -73 -230 -169 -46 -155 82 -298 260 -289 256 13 666
100 942 199 176 64 408 189 524 282 447 361 564 888 314 1411 -64 134 -217
372 -282 440 -7 7 -13 17 -13 21 0 4 -8 16 -18 27 -15 16 -113 142 -260 333
-84 109 -192 277 -231 362 -69 149 -93 253 -92 389 2 229 160 437 452 593 46
25 109 55 139 67 30 12 69 28 85 35 17 7 71 25 120 39 50 15 113 33 140 41 81
24 138 92 148 177 8 78 -35 205 -92 270 -56 64 -167 96 -266 77z"/>
<path d="M3556 4684 c-123 -29 -233 -111 -300 -224 -48 -82 -60 -130 -61 -245
-1 -363 414 -585 722 -386 290 187 290 604 0 792 -103 67 -241 91 -361 63z"/>
<path d="M4169 3203 c-146 -37 -243 -166 -241 -318 2 -131 71 -236 192 -293
78 -37 183 -37 261 0 76 35 130 85 164 155 25 50 29 70 29 143 0 78 -3 90 -34
148 -74 139 -219 204 -371 165z"/>
<path d="M4165 1810 c-207 -32 -292 -293 -143 -442 162 -161 434 -54 444 175
7 163 -138 292 -301 267z"/>
<path d="M3258 978 c-78 -35 -126 -100 -132 -181 -13 -164 156 -286 305 -220
170 77 175 312 8 398 -47 25 -130 26 -181 3z"/>
</g>
</svg>
